#!OML:ASF H:\Dans Jumps\Project 1\Capture day 1\Session 1\subject.ASF
:FULLY-SPECIFIED
:DEGREES
505
root 0.28675 17.7388 4.24445 8.99944 0.463278 -1.60025
lowerback -4.92642 -0.0165657 0.423533
upperback 1.03642 -0.105387 1.50992
thorax 3.83486 -0.0603736 1.31152
lowerneck -12.6837 -0.640814 -2.43873
upperneck 30.795 -0.896769 1.91809
head 12.2682 -0.43533 1.02525
rclavicle 1.39149e-015 1.2921e-014
rhumerus -26.3874 -14.9123 -80.241
rradius 25.8988
rwrist 30.9398
rhand -23.2999 -28.4973
rfingers 7.12502
rthumb 3.15351 -58.4537
lclavicle 1.39149e-015 1.2921e-014
lhumerus -23.8007 -2.72529 88.3072
lradius 26.0548
lwrist 9.72397
lhand -26.5095 -6.29222
lfingers 7.12502
lthumb 0.0536468 23.6875
rfemur -12.0372 -3.64306 20.2212
rtibia 19.2645
rfoot -14.0958 1.26911
rtoes 20.3086
lfemur -10.4957 6.04445 -17.1561
ltibia 16.2264
lfoot -9.90761 8.08872
ltoes 0.572531
506
root 0.289357 17.7383 4.23816 8.96714 0.38666 -1.62028
lowerback -4.91088 -0.00698314 0.431045
upperback 1.04722 -0.0928853 1.5058
thorax 3.83699 -0.0539686 1.30407
lowerneck -12.7238 -0.6367 -2.45413
upperneck 30.7379 -0.895116 1.94848
head 12.2536 -0.43235 1.03912
rclavicle 2.48481e-015 7.95139e-016
rhumerus -26.4297 -15.0124 -80.2392
rradius 25.8149
rwrist 31.0747
rhand -23.2251 -28.454
rfingers 7.12502
rthumb 3.22573 -58.4094
lclavicle 2.48481e-015 7.95139e-016
lhumerus -23.72 -2.32112 88.1879
lradius 25.5873
lwrist 9.1655
lhand -26.3922 -6.12653
lfingers 7.12502
lthumb 0.16696 23.8532
rfemur -12.0335 -3.58966 20.2261
rtibia 19.2631
rfoot -14.0745 1.28691
rtoes 20.3027
lfemur -10.4758 6.04835 -17.1476
ltibia 16.2399
lfoot -9.88869 8.16021
ltoes 0.567632
507
root 0.292243 17.7377 4.23187 8.93091 0.315341 -1.64938
lowerback -4.88973 0.00470076 0.458284
upperback 1.05897 -0.0785769 1.49683
thorax 3.83688 -0.0461561 1.28066
lowerneck -12.7635 -0.635131 -2.46519
upperneck 30.6805 -0.899512 1.98292
head 12.239 -0.431033 1.05291
rclavicle 4.96962e-016 -1.98785e-015
rhumerus -26.474 -15.1434 -80.2306
rradius 25.7184
rwrist 31.2265
rhand -23.136 -28.3557
rfingers 7.12502
rthumb 3.3118 -58.3097
lclavicle 4.96962e-016 -1.98785e-015
lhumerus -23.6571 -1.89297 88.0537
lradius 25.1459
lwrist 8.60079
lhand -26.3022 -6.00597
lfingers 7.12502
lthumb 0.253862 23.9736
rfemur -12.0218 -3.54442 20.2402
rtibia 19.2559
rfoot -14.0511 1.31079
rtoes 20.2981
lfemur -10.4567 6.05659 -17.1288
ltibia 16.2624
lfoot -9.87964 8.22231
ltoes 0.565994
508
root 0.295289 17.7373 4.22548 8.89943 0.246784 -1.66737
lowerback -4.86806 0.0134917 0.477997
upperback 1.06748 -0.0674092 1.48308
thorax 3.83319 -0.0400068 1.25627
lowerneck -12.7843 -0.630927 -2.47445
upperneck 30.6095 -0.899951 2.01461
head 12.2148 -0.42815 1.06574
rclavicle -8.44835e-016 1.64991e-014
rhumerus -26.5155 -15.2852 -80.2172
rradius 25.6069
rwrist 31.3923
rhand -23.0323 -28.2187
rfingers 7.12502
rthumb 3.41187 -58.1711
lclavicle -8.44835e-016 1.64991e-014
lhumerus -23.6158 -1.45129 87.9116
lradius 24.7334
lwrist 8.05929
lhand -26.2342 -5.86293
lfingers 7.12502
lthumb 0.319589 24.1166
rfemur -12.0144 -3.50627 20.2422
rtibia 19.2458
rfoot -14.0233 1.33827
rtoes 20.2896
lfemur -10.4472 6.06886 -17.1228
ltibia 16.2904
lfoot -9.87582 8.27433
ltoes 0.563732
509
root 0.298331 17.737 4.21904 8.87191 0.178664 -1.69
lowerback -4.84553 0.0200791 0.503799
upperback 1.07326 -0.0595279 1.47004
thorax 3.82625 -0.0353513 1.2289
lowerneck -12.8052 -0.622592 -2.47836
upperneck 30.5414 -0.892769 2.03657
head 12.1915 -0.42252 1.07504
rclavicle 0 -1.21259e-014
rhumerus -26.5569 -15.4241 -80.2042
rradius 25.4864
rwrist 31.5591
rhand -22.9221 -28.0894
rfingers 7.12502
rthumb 3.51831 -58.0401
lclavicle 0 -1.21259e-014
lhumerus -23.5998 -1.0184 87.7671
lradius 24.3559
lwrist 7.58075
lhand -26.2029 -5.76481
lfingers 7.12502
lthumb 0.34982 24.2146
rfemur -12.0113 -3.4671 20.2495
rtibia 19.2343
rfoot -13.9929 1.36627
rtoes 20.2826
lfemur -10.4439 6.08721 -17.1114
ltibia 16.3213
lfoot -9.87629 8.31793
ltoes 0.569573
510
root 0.301262 17.7369 4.2126 8.85122 0.111704 -1.71422
lowerback -4.82875 0.0229897 0.529077
upperback 1.07866 -0.056687 1.45965
thorax 3.82228 -0.033248 1.20418
lowerneck -12.8264 -0.609019 -2.47535
upperneck 30.4718 -0.875401 2.04448
head 12.1674 -0.413349 1.07922
rclavicle 1.2424e-015 3.97569e-016
rhumerus -26.5932 -15.553 -80.1934
rradius 25.3644
rwrist 31.7213
rhand -22.8097 -27.9839
rfingers 7.12502
rthumb 3.62687 -57.9327
lclavicle 1.2424e-015 3.97569e-016
lhumerus -23.6057 -0.604574 87.6262
lradius 24.0138
lwrist 7.17872
lhand -26.1924 -5.67945
lfingers 7.12502
lthumb 0.359898 24.3
rfemur -12.0164 -3.42431 20.2596
rtibia 19.2234
rfoot -13.9605 1.39017
rtoes 20.2713
lfemur -10.4489 6.11281 -17.0983
ltibia 16.352
lfoot -9.87801 8.35251
ltoes 0.585133
